<svg width="40" height="40" viewBox="0 0 40 40" fill="none" xmlns="http://www.w3.org/2000/svg">
<path d="M16.6668 21.666C17.3825 22.6228 18.2957 23.4146 19.3443 23.9875C20.393 24.5605 21.5526 24.9012 22.7445 24.9865C23.9364 25.0719 25.1327 24.8999 26.2523 24.4823C27.3719 24.0646 28.3886 23.4111 29.2334 22.566L34.2334 17.566C35.7514 15.9943 36.5914 13.8893 36.5724 11.7043C36.5534 9.51931 35.677 7.4292 34.1319 5.88414C32.5868 4.33907 30.4967 3.46266 28.3118 3.44367C26.1268 3.42469 24.0218 4.26464 22.4501 5.78262L19.5834 8.63262M23.3334 18.3326C22.6177 17.3757 21.7045 16.584 20.6558 16.0111C19.6072 15.4381 18.4476 15.0974 17.2557 15.0121C16.0638 14.9267 14.8674 15.0987 13.7478 15.5163C12.6282 15.934 11.6116 16.5875 10.7668 17.4326L5.76676 22.4326C4.24877 24.0043 3.40882 26.1093 3.42781 28.2943C3.44679 30.4793 4.3232 32.5694 5.86827 34.1144C7.41334 35.6595 9.50344 36.5359 11.6884 36.5549C13.8734 36.5739 15.9784 35.7339 17.5501 34.216L20.4001 31.366" stroke="#1E1E1E" stroke-width="3.5" stroke-linecap="round" stroke-linejoin="round"/>
</svg>
